<svg width="37" height="9" viewBox="0 0 37 9" fill="none" xmlns="http://www.w3.org/2000/svg">
<path fill-rule="evenodd" clip-rule="evenodd" d="M18 9H1V8H0V0H18V9ZM3 7H6V6H3V7ZM8 7H9V6H8V7ZM15 3H14V4H13V5H14V4H15V7H16V2H15V3ZM2 6H3V5H5V4H3V3H5V2H2V6ZM7 6H8V5H7V6ZM9 6H10V2H9V6ZM11 6H12V4H13V3H12V2H11V6ZM6 5H7V2H6V5Z" fill="url(#paint0_linear_10_379)"/>
<path d="M21 3H22V4H21V7H20V2H21V3Z" fill="url(#paint1_linear_10_379)"/>
<path d="M24 7H23V5H22V4H23V2H24V7Z" fill="url(#paint2_linear_10_379)"/>
<path d="M28 7H26V6H28V7Z" fill="url(#paint3_linear_10_379)"/>
<path d="M32 7H31V6H32V7Z" fill="url(#paint4_linear_10_379)"/>
<path d="M35 7H33V6H34V3H35V7Z" fill="url(#paint5_linear_10_379)"/>
<path d="M26 6H25V3H26V6Z" fill="url(#paint6_linear_10_379)"/>
<path d="M29 6H28V3H29V6Z" fill="url(#paint7_linear_10_379)"/>
<path d="M31 6H30V2H31V6Z" fill="url(#paint8_linear_10_379)"/>
<path d="M33 6H32V5H33V6Z" fill="url(#paint9_linear_10_379)"/>
<path d="M28 3H26V2H28V3Z" fill="url(#paint10_linear_10_379)"/>
<defs>
<linearGradient id="paint0_linear_10_379" x1="0" y1="4.5" x2="35" y2="4.5" gradientUnits="userSpaceOnUse">
<stop stop-color="#666666"/>
<stop offset="0.831731"/>
</linearGradient>
<linearGradient id="paint1_linear_10_379" x1="0" y1="4.5" x2="35" y2="4.5" gradientUnits="userSpaceOnUse">
<stop stop-color="#666666"/>
<stop offset="0.831731"/>
</linearGradient>
<linearGradient id="paint2_linear_10_379" x1="0" y1="4.5" x2="35" y2="4.5" gradientUnits="userSpaceOnUse">
<stop stop-color="#666666"/>
<stop offset="0.831731"/>
</linearGradient>
<linearGradient id="paint3_linear_10_379" x1="0" y1="4.5" x2="35" y2="4.5" gradientUnits="userSpaceOnUse">
<stop stop-color="#666666"/>
<stop offset="0.831731"/>
</linearGradient>
<linearGradient id="paint4_linear_10_379" x1="0" y1="4.5" x2="35" y2="4.5" gradientUnits="userSpaceOnUse">
<stop stop-color="#666666"/>
<stop offset="0.831731"/>
</linearGradient>
<linearGradient id="paint5_linear_10_379" x1="0" y1="4.5" x2="35" y2="4.5" gradientUnits="userSpaceOnUse">
<stop stop-color="#666666"/>
<stop offset="0.831731"/>
</linearGradient>
<linearGradient id="paint6_linear_10_379" x1="0" y1="4.5" x2="35" y2="4.5" gradientUnits="userSpaceOnUse">
<stop stop-color="#666666"/>
<stop offset="0.831731"/>
</linearGradient>
<linearGradient id="paint7_linear_10_379" x1="0" y1="4.5" x2="35" y2="4.5" gradientUnits="userSpaceOnUse">
<stop stop-color="#666666"/>
<stop offset="0.831731"/>
</linearGradient>
<linearGradient id="paint8_linear_10_379" x1="0" y1="4.5" x2="35" y2="4.5" gradientUnits="userSpaceOnUse">
<stop stop-color="#666666"/>
<stop offset="0.831731"/>
</linearGradient>
<linearGradient id="paint9_linear_10_379" x1="0" y1="4.5" x2="35" y2="4.5" gradientUnits="userSpaceOnUse">
<stop stop-color="#666666"/>
<stop offset="0.831731"/>
</linearGradient>
<linearGradient id="paint10_linear_10_379" x1="0" y1="4.5" x2="35" y2="4.5" gradientUnits="userSpaceOnUse">
<stop stop-color="#666666"/>
<stop offset="0.831731"/>
</linearGradient>
</defs>
</svg>
